# xmcd CD database file
#
# Track frame offsets:
#	150
#	18301
#	34727
#	52428
#	71403
#	87303
#	106204
#	127729
#	145280
#
# Disc length: 2159 seconds
#
# Revision: 0
# Processed by: cddbd v1.5.2PL0 Copyright (c) Steve Scherf et al.
# Submitted via: CdAid (MTCDDB.DLL V2003.12.21)
#
DISCID=78086d09
DTITLE=The Temptations - House Party
DYEAR=1975
DGENRE=Soul
TTITLE0=Keep Holding On
TTITLE1=It's Just A Matter Of Time
TTITLE2=You Can't Stop A Man In Love
TTITLE3=World Of You, Love And Music
TTITLE4=What You Need Most (I Do Best Of All)
TTITLE5=Ways Of A Grown Up Man
TTITLE6=Johnny Porter
TTITLE7=Darling, Stand By Me (Song For My Woman)
TTITLE8=If I Don't Love You This Way
EXTD=ID3G:  42 YEAR: 1975
EXTT0=
EXTT1=
EXTT2=
EXTT3=
EXTT4=
EXTT5=
EXTT6=
EXTT7=
EXTT8=
PLAYORDER=
